<svg width="32" height="31" viewBox="0 0 32 31" fill="none" xmlns="http://www.w3.org/2000/svg">
<path d="M13.3333 23.25C15.7 23.2495 17.9984 22.482 19.8627 21.0697L25.724 26.7478L27.6093 24.9214L21.748 19.2433C23.2067 17.4371 23.9994 15.21 24 12.9167C24 7.21914 19.2147 2.58334 13.3333 2.58334C7.45199 2.58334 2.66666 7.21914 2.66666 12.9167C2.66666 18.6142 7.45199 23.25 13.3333 23.25ZM13.3333 5.16668C17.7453 5.16668 21.3333 8.64255 21.3333 12.9167C21.3333 17.1908 17.7453 20.6667 13.3333 20.6667C8.92132 20.6667 5.33332 17.1908 5.33332 12.9167C5.33332 8.64255 8.92132 5.16668 13.3333 5.16668Z" fill="black"/>
</svg>
